
<svg width="196" height="168" viewBox="0 0 196 168" xmlns="http://www.w3.org/2000/svg" xmlns:xlink="http://www.w3.org/1999/xlink" version="1.1" baseProfile="full">
    <g transform="scale(1.000000,-1.000000) translate(0,-168)">
        <path d="M 1.000000 11.000000 L 152.875000 11.000000 L 152.875000 1.000000 L 1.000000 1.000000 L 1.000000 11.000000 Z" transform="scale(1.000000,1.000000) translate(22.634102,37.638432)" fill="#dfb600" opacity="1.000000"></path>
        <path d="M 1.000000 11.000000 L 152.875000 11.000000 L 152.875000 1.000000 L 1.000000 1.000000 L 1.000000 11.000000 Z" transform="scale(1.000000,1.000000) translate(22.634102,123.468510)" fill="#dfb600" opacity="1.000000"></path>
        <path d="M 42.176758 26.927734 L 48.636719 26.927734 L 48.636719 15.414062 L 42.176758 15.414062 L 42.176758 1.922852 L 27.323242 1.922852 L 27.323242 15.414062 L 1.878906 15.414062 L 1.000000 24.554688 L 27.323242 65.775391 L 27.323242 65.907227 L 42.176758 65.907227 Z M 13.744141 26.927734 L 27.323242 26.927734 L 27.323242 46.834961 L 27.059570 46.878906 L 25.433594 43.583008 Z M 99.349609 25.433594 Q 99.349609 13.963867 93.241211 7.481934 Q 87.132812 1.000000 77.113281 1.000000 Q 67.005859 1.000000 60.897461 7.481934 Q 54.789062 13.963867 54.789062 25.433594 L 54.789062 42.396484 Q 54.789062 53.866211 60.853516 60.348145 Q 66.917969 66.830078 77.025391 66.830078 Q 87.044922 66.830078 93.197266 60.326172 Q 99.349609 53.822266 99.349609 42.396484 Z M 84.540039 43.407227 Q 84.540039 49.251953 82.540527 52.328125 Q 80.541016 55.404297 77.025391 55.404297 Q 73.465820 55.404297 71.532227 52.328125 Q 69.598633 49.251953 69.598633 43.407227 L 69.598633 24.510742 Q 69.598633 18.534180 71.554199 15.479980 Q 73.509766 12.425781 77.113281 12.425781 Q 80.628906 12.425781 82.584473 15.479980 Q 84.540039 18.534180 84.540039 24.510742 Z M 146.415039 26.927734 L 152.875000 26.927734 L 152.875000 15.414062 L 146.415039 15.414062 L 146.415039 1.922852 L 131.561523 1.922852 L 131.561523 15.414062 L 106.117188 15.414062 L 105.238281 24.554688 L 131.561523 65.775391 L 131.561523 65.907227 L 146.415039 65.907227 Z M 117.982422 26.927734 L 131.561523 26.927734 L 131.561523 46.834961 L 131.297852 46.878906 L 129.671875 43.583008 Z" transform="scale(1.000000,1.000000) translate(22.634102,52.638432)" fill="#dfb600" opacity="1.000000"></path>
    </g>
</svg>